<svg width="1036" height="240" viewBox="0 0 1036 240" fill="none" xmlns="http://www.w3.org/2000/svg">
<path d="M0 55.3238C0 39.778 16.9594 30.1756 30.29 38.174L80.5798 68.348C92.628 75.5768 100 88.5972 100 102.648L100 137.352C100 151.403 92.628 164.423 80.5798 171.652L30.2898 201.826C16.9594 209.824 0 200.222 0 184.676L0 55.3238Z" fill="#34A853"/>
<path d="M207.71 0C218.302 0 223.7 12.7239 216.338 20.3402L189.792 47.8008C182.256 55.5974 171.877 60 161.033 60L111.079 60C103.83 60 96.7162 58.0296 90.4997 54.2996L37.1499 22.2898C26.7135 16.0281 31.1531 0 43.3238 0L207.71 0Z" fill="#FBBC05"/>
<path d="M207.71 240C218.302 240 223.7 227.276 216.338 219.66L189.792 192.199C182.256 184.402 171.877 180 161.033 180L111.079 180C103.83 180 96.7162 181.97 90.4997 185.7L37.1499 217.71C26.7135 223.972 31.1531 240 43.3238 240L207.71 240Z" fill="#EA4335"/>
<rect x="112" y="90" width="60" height="60" rx="30" fill="#4285F4"/>
<text x="260" y="140" fill="black" font-size="80" font-family="Arial, sans-serif" font-weight="bold">SportSync</text>
</svg>
